# xmcd
#
# Track frame offsets: 
#        150
#        18583
#        42033
#        58609
#        70909
#        93074
#        111070
#        145353
#        169785
#        182224
#        199522
#        212473
#        227798
#        246263
#        269706
#        291678
#
# Disc length: 4308 seconds
#
# Revision: 1
# Processed by: cddbd v1.5.2PL0 Copyright (c) Steve Scherf et al.
# Submitted via: ExactAudioCopyFreeDBPlugin 1.0
#
DISCID=f010d210
DTITLE=群星 - TEST-CD试音极品15CDA
DYEAR=2013
DGENRE=stereo
TTITLE0=测试音效与弦乐五重奏
TTITLE1=那些花儿
TTITLE2=大海啊,故乡
TTITLE3=落花流水
TTITLE4=春秋战国
TTITLE5=一生爱你千百回
TTITLE6=二泉映月
TTITLE7=葬心
TTITLE8=红色娘子军交响组曲
TTITLE9=彩云深处
TTITLE10=斯特劳斯管弦乐曲
TTITLE11=南泥湾
TTITLE12=国乐之人间天堂
TTITLE13=梨花香
TTITLE14=好人一生平安
TTITLE15=绛州大鼓
EXTD=
EXTT0=
EXTT1=
EXTT2=
EXTT3=
EXTT4=
EXTT5=
EXTT6=
EXTT7=
EXTT8=
EXTT9=
EXTT10=
EXTT11=
EXTT12=
EXTT13=
EXTT14=
EXTT15=
PLAYORDER=
